<?xml version="1.0" encoding="iso-8859-1"?>
<!-- Generator: Adobe Illustrator 27.5.0, SVG Export Plug-In . SVG Version: 6.00 Build 0)  -->
<svg version="1.1" id="Layer_1" xmlns="http://www.w3.org/2000/svg" xmlns:xlink="http://www.w3.org/1999/xlink" x="0px" y="0px"
	 viewBox="0 0 514 514" style="enable-background:new 0 0 514 514;" xml:space="preserve">
<g>
	<g>
		<path style="fill:#33CCCC;" d="M412.633,210.856c-55.895,0-101.367,45.473-101.367,101.368
			c0,55.894,45.473,101.367,101.367,101.367S514,368.118,514,312.224C514,256.33,468.527,210.856,412.633,210.856z M412.633,391.591
			c-43.764,0-79.367-35.604-79.367-79.367c0-43.764,35.604-79.368,79.367-79.368S492,268.46,492,312.224
			C492,355.987,456.396,391.591,412.633,391.591z"/>
		<path style="fill:#33CCCC;" d="M101.368,210.856C45.474,210.856,0,256.33,0,312.224c0,55.894,45.474,101.367,101.368,101.367
			s101.367-45.473,101.367-101.367C202.735,256.33,157.263,210.856,101.368,210.856z M101.368,391.591
			C57.604,391.591,22,355.987,22,312.224c0-43.764,35.604-79.368,79.368-79.368s79.367,35.604,79.367,79.368
			C180.735,355.987,145.132,391.591,101.368,391.591z"/>
	</g>
	<path d="M423.258,309.377l-53.809-200.815c-1.288-4.809-5.646-8.153-10.625-8.153h-38.995c-6.075,0-11,4.925-11,11s4.925,11,11,11
		h30.555l11.799,44.034H185.535l-33.897-58.712c-3.037-5.261-9.763-7.065-15.026-4.026c-5.261,3.038-7.063,9.765-4.026,15.026
		l33.897,58.711L91.841,306.724c-1.965,3.403-1.965,7.597,0,11s5.597,5.5,9.526,5.5H246v29.544h-4.062c-6.075,0-11,4.925-11,11
		s4.925,11,11,11h30.123c6.075,0,11-4.925,11-11s-4.925-11-11-11H268v-37.711l69.867-126.615h30.21l33.93,126.629
		c1.316,4.915,5.761,8.156,10.618,8.156c0.942,0,1.9-0.122,2.854-0.378C421.348,321.277,424.83,315.245,423.258,309.377z
		 M120.42,301.224l58.764-101.782l58.765,101.782H120.42z M256.783,289.849l-58.547-101.406H312.74L256.783,289.849z"/>
	<g>
		<path style="fill:#33CCCC;" d="M186.171,122.409h-58.738c-6.075,0-11-4.925-11-11s4.925-11,11-11h58.738c6.075,0,11,4.925,11,11
			S192.246,122.409,186.171,122.409z"/>
	</g>
</g>
<g>
</g>
<g>
</g>
<g>
</g>
<g>
</g>
<g>
</g>
<g>
</g>
<g>
</g>
<g>
</g>
<g>
</g>
<g>
</g>
<g>
</g>
<g>
</g>
<g>
</g>
<g>
</g>
<g>
</g>
</svg>
