<?xml version="1.0" encoding="iso-8859-1"?>
<!-- Generator: Adobe Illustrator 27.5.0, SVG Export Plug-In . SVG Version: 6.00 Build 0)  -->
<svg version="1.1" id="Layer_1" xmlns="http://www.w3.org/2000/svg" xmlns:xlink="http://www.w3.org/1999/xlink" x="0px" y="0px"
	 viewBox="0 0 512 512" style="enable-background:new 0 0 512 512;" xml:space="preserve">
<g>
	<g>
		<path style="fill:#33CCCC;" d="M416,270.21c-52.935,0-96,43.065-96,96c0,52.935,43.065,96,96,96c52.934,0,96-43.065,96-96
			C512,313.276,468.935,270.21,416,270.21z M416,440.211c-40.804,0-74-33.196-74-74c0-40.804,33.196-74,74-74
			c40.803,0,74,33.196,74,74C490,407.015,456.804,440.211,416,440.211z"/>
		<path style="fill:#33CCCC;" d="M96,270.21c-52.935,0-96,43.065-96,96c0,52.935,43.065,96,96,96c52.935,0,96-43.065,96-96
			C192,313.276,148.935,270.21,96,270.21z M96,440.211c-40.804,0-74-33.196-74-74c0-40.804,33.196-74,74-74
			c40.804,0,74,33.196,74,74C170,407.015,136.804,440.211,96,440.211z"/>
		<path style="fill:#33CCCC;" d="M76.07,107.751h40.832c6.075,0,11-4.925,11-11s-4.925-11-11-11H76.07c-6.075,0-11,4.925-11,11
			S69.995,107.751,76.07,107.751z"/>
		<path style="fill:#33CCCC;" d="M35.916,156.316h40.832c6.075,0,11-4.925,11-11s-4.925-11-11-11H35.916c-6.075,0-11,4.925-11,11
			S29.84,156.316,35.916,156.316z"/>
	</g>
	<g>
		<path d="M96,377.211h133.006c6.217,10.413,17.042,16.68,28.731,16.68c2.845,0,5.742-0.372,8.636-1.145
			c8.637-2.308,15.859-7.841,20.334-15.581c4.475-7.739,5.669-16.758,3.359-25.403l-5.166-19.278l81.469-85.021l39.155,122.107
			c1.497,4.668,5.819,7.644,10.472,7.644c1.113,0,2.245-0.17,3.361-0.528c5.785-1.855,8.971-8.048,7.116-13.833L365.642,173.14
			c-1.46-4.553-5.693-7.641-10.475-7.641h-19.735c-1.604-4.637-4.254-8.99-7.95-12.687l-57.371-57.371
			c20.032-4.97,34.925-23.104,34.925-44.653c0-25.364-20.636-46-46-46s-46,20.636-46,46c0,3.308,0.352,6.535,1.018,9.647
			c-2.094,0.011-4.201,0.153-6.31,0.431c-16.019,2.109-30.111,11.813-38.662,26.623l-52.748,91.361
			c-6.388,11.065-8.083,24.731-4.649,37.493c3.272,12.161,10.899,22.239,21.491,28.405l5.748,3.653l-52.889,113.15
			c-1.592,3.407-1.334,7.391,0.686,10.564C88.739,375.29,92.239,377.211,96,377.211z M358.731,223.637l-80.488,83.997
			l-12.112-45.204c-2.487-9.306-8.446-19.5-15.552-26.605l-38.233-38.222l25.625-36.022l42.484,38.936
			c13.664,12.522,34.319,12.375,47.027-0.331c3.696-3.697,6.346-8.049,7.95-12.687h11.711L358.731,223.637z M259.035,26.789
			c13.234,0,24,10.766,24,24c0,13.234-10.766,24.001-24,24.001s-24-10.767-24-24.001C235.035,37.555,245.801,26.789,259.035,26.789z
			 M188.134,98.49c5.178-8.969,13.163-14.584,22.481-15.812c1.216-0.16,2.432-0.239,3.641-0.239c7.515,0,14.79,3.05,20.386,8.647
			l77.282,77.282c4.483,4.483,4.483,11.777,0,16.26c-4.429,4.429-11.569,4.286-16.606-0.331l-59.869-54.869
			c-4.478-4.104-11.436-3.802-15.542,0.677c-4.104,4.479-3.802,11.437,0.677,15.542l1.042,0.955l-26.8,37.676l-42.167-24.345
			L188.134,98.49z M132.929,210.629c-1.898-7.057-0.98-14.824,2.458-20.777l6.273-10.866l49.578,28.624l43.786,43.774
			c4.325,4.324,8.376,11.202,9.854,16.734l23.936,89.331c0.791,2.96,0.382,6.052-1.152,8.704c-1.534,2.652-4.008,4.548-6.968,5.339
			c-5.965,1.592-12.076-2.143-14.212-8.692l-28.456-87.219c-0.792-2.427-2.403-4.503-4.558-5.873l-68.687-43.649
			c-0.138-0.087-0.278-0.172-0.419-0.253C137.176,221.676,134.178,215.273,132.929,210.629z M157.647,260.301l40.689,25.857
			l22.529,69.053H113.284L157.647,260.301z"/>
		<path d="M501,485.211H11c-6.075,0-11,4.925-11,11s4.925,11,11,11h490c6.075,0,11-4.925,11-11S507.075,485.211,501,485.211z"/>
	</g>
</g>
<g>
</g>
<g>
</g>
<g>
</g>
<g>
</g>
<g>
</g>
<g>
</g>
<g>
</g>
<g>
</g>
<g>
</g>
<g>
</g>
<g>
</g>
<g>
</g>
<g>
</g>
<g>
</g>
<g>
</g>
</svg>
