<?xml version="1.0"?>
<svg xmlns="http://www.w3.org/2000/svg" viewBox="0 0 64 64"><g id="Setting"><path d="M28.79,63a2.25134,2.25134,0,0,1-2.2002-1.74023L25.02,54.58984,20.96,52.91016l-5.81982,3.59961a2.23181,2.23181,0,0,1-2.79053-.31983l-4.53955-4.54a2.23873,2.23873,0,0,1-.31983-2.79l3.60938-5.82959-.28516-.68408c-.458-1.0957-.73193-1.75146-1.19922-2.89014l-.19531-.47656L2.73975,37.41016A2.251,2.251,0,0,1,1,35.21V28.79a2.25134,2.25134,0,0,1,1.74023-2.2002l6.67969-1.56933.19531-.47656c.46729-1.13868.74122-1.79444,1.188-2.8628l.29639-.71142L7.49023,15.14014a2.23714,2.23714,0,0,1,.31983-2.79053l4.54-4.53955a2.23289,2.23289,0,0,1,2.79-.31983l5.82959,3.60938.68408-.28516c1.0957-.458,1.75146-.73193,2.89014-1.19922l.47656-.19531,1.56933-6.68017A2.251,2.251,0,0,1,28.79,1H35.21a2.25134,2.25134,0,0,1,2.2002,1.74023l1.56933,6.67969.47656.19531c1.13868.46729,1.79444.74122,2.8628,1.188l.71142.29639,5.82959-3.60938a2.23181,2.23181,0,0,1,2.79053.31983l4.53955,4.54a2.23873,2.23873,0,0,1,.31983,2.79l-3.60938,5.82959.28516.68408c.458,1.0957.73193,1.75146,1.19922,2.89014l.19531.47656,6.68017,1.56933A2.251,2.251,0,0,1,63,28.79V35.21a2.25134,2.25134,0,0,1-1.74023,2.2002l-6.67969,1.56933-.19531.47656c-.46729,1.13868-.74122,1.79444-1.188,2.8628l-.29639.71142,3.60938,5.82959a2.23714,2.23714,0,0,1-.31983,2.79053l-4.54,4.53955a2.24049,2.24049,0,0,1-1.59326.66846h0a2.24828,2.24828,0,0,1-1.19678-.34863L43.04,52.91016,38.98,54.58984l-1.56982,6.66993A2.25093,2.25093,0,0,1,35.21,63Z" style="fill:#d2eaf9"/><circle cx="32" cy="32" r="16" style="fill:#b9d3ea"/><path d="M58.75732,62.99756a4.21368,4.21368,0,0,1-3-1.24024L36.19287,42.19287l-.59033.20264a11.0448,11.0448,0,0,1-3.59375.605q-.449,0-.90039-.03662a11.00879,11.00879,0,0,1-9.28858-15.144L30,36l5.00049-.99951L36,30l-8.18018-8.18018a11.048,11.048,0,0,1,4.19141-.81884q.38745,0,.77588.02636a11.00541,11.00541,0,0,1,9.6084,14.5752l-.20264.59033L61.75732,55.75732a4.24024,4.24024,0,0,1-3,7.24024Z" style="fill:#a596b2"/><path d="M61.48877,25.61621l-6.1709-1.45215-1.28808-3.11328L57.356,15.67285a3.23349,3.23349,0,0,0-.459-4.02978l-4.53955-4.54a3.23273,3.23273,0,0,0-4.02392-.46289L42.94092,9.979l-.20947-.0874c-1.08643-.4541-1.74512-.72949-2.896-1.20166L38.3833,2.51123A3.24676,3.24676,0,0,0,35.21,0H28.79a3.24772,3.24772,0,0,0-3.17383,2.51123L24.16455,8.68994c-1.15088.47217-1.80957.74756-2.896,1.20166l-.20947.0874L15.67285,6.644a3.2337,3.2337,0,0,0-4.02978.459l-4.54,4.53955a3.232,3.232,0,0,0-.46289,4.02392L9.979,21.05908l-.0874.20947c-.4541,1.08643-.72949,1.74512-1.20166,2.896L2.51123,25.6167A3.24676,3.24676,0,0,0,0,28.79V35.21a3.24772,3.24772,0,0,0,2.51123,3.17383l6.17871,1.45166c.47217,1.15088.74756,1.80957,1.20166,2.896l.0874.20947L6.644,48.32715a3.23349,3.23349,0,0,0,.459,4.02978l4.53955,4.54a3.23307,3.23307,0,0,0,4.02344.46338l5.38476-3.33056,3.11328,1.28808,1.45264,6.1709A3.24676,3.24676,0,0,0,28.79,64H35.21a3.24772,3.24772,0,0,0,3.17383-2.51123l1.45166-6.169c.9375-.38574,1.54492-.63964,2.32324-.96826a1,1,0,1,0-.77734-1.84277c-.897.37842-1.56446.65771-2.78076,1.15576a1.00088,1.00088,0,0,0-.59424.69629L36.437,61.03076A1.255,1.255,0,0,1,35.21,62H28.79a1.254,1.254,0,0,1-1.22656-.96924l-1.56983-6.66992a.99975.99975,0,0,0-.59033-.69434l-4.06006-1.67968a1.00181,1.00181,0,0,0-.90918.07275l-5.82666,3.604a1.2591,1.2591,0,0,1-1.55029-.18066l-4.54-4.54053a1.26173,1.26173,0,0,1-.17676-1.55615l3.60987-5.83008a.99924.99924,0,0,0,.07275-.91162l-.28613-.68408c-.51123-1.22363-.79493-1.90234-1.39161-3.35938a1.00039,1.00039,0,0,0-.69628-.59472L2.96924,36.437A1.255,1.255,0,0,1,2,35.21V28.79a1.254,1.254,0,0,1,.96924-1.22656l6.67969-1.56983a1.00039,1.00039,0,0,0,.69628-.59472c.59668-1.457.88038-2.13575,1.39161-3.35938l.28613-.68408a.99924.99924,0,0,0-.07275-.91162L8.33643,14.60742a1.26036,1.26036,0,0,1,.18066-1.55029l4.54053-4.54a1.26194,1.26194,0,0,1,1.55615-.17676l5.83008,3.60987a.99792.99792,0,0,0,.91162.07275l.68408-.28613c1.22363-.51123,1.90234-.79493,3.35938-1.39161a1.00039,1.00039,0,0,0,.59472-.69628L27.563,2.96924A1.255,1.255,0,0,1,28.79,2H35.21a1.254,1.254,0,0,1,1.22656.96924l1.56983,6.67969a1.00039,1.00039,0,0,0,.59472.69628c1.457.59668,2.13575.88038,3.35938,1.39161l.68408.28613a1.001,1.001,0,0,0,.91162-.07275l5.83643-3.61377a1.26036,1.26036,0,0,1,1.55029.18066l4.54,4.54053a1.26162,1.26162,0,0,1,.17627,1.55664l-3.59961,5.81982a.99861.99861,0,0,0-.07275.90918l1.67968,4.06006a.99975.99975,0,0,0,.69434.59033L61.03076,27.563A1.255,1.255,0,0,1,62,28.79V35.21a1.254,1.254,0,0,1-.96924,1.22656l-6.66992,1.56983a1.00088,1.00088,0,0,0-.69629.59424c-.498,1.2163-.77734,1.88379-1.15576,2.78076a1,1,0,1,0,1.84277.77734c.32862-.77832.58252-1.38574.96826-2.32324l6.169-1.45215A3.24676,3.24676,0,0,0,64,35.21V28.79A3.24772,3.24772,0,0,0,61.48877,25.61621Z" style="fill:#292733"/><path d="M47.28711,36.84033A1,1,0,0,0,48.5,36.11279,16.97717,16.97717,0,1,0,36.11279,48.5a1.0001,1.0001,0,0,0-.48535-1.94043A14.97815,14.97815,0,1,1,46.55957,35.62744,1.00018,1.00018,0,0,0,47.28711,36.84033Z" style="fill:#292733"/><path d="M43.34131,35.92725A12.00754,12.00754,0,0,0,27.4375,20.896a.99941.99941,0,0,0-.32471,1.63086l7.80176,7.80175-.76416,3.82178-3.82178.76416-7.80175-7.80176a.99941.99941,0,0,0-1.63086.32471A12.00646,12.00646,0,0,0,35.92725,43.34131l19.123,19.12305a5.24254,5.24254,0,0,0,7.41407-7.41407Zm17.709,25.123a3.24764,3.24764,0,0,1-4.58593,0L36.88721,41.47314a.99909.99909,0,0,0-1.08106-.22021A10.01077,10.01077,0,0,1,22.0249,32.7168a10.2209,10.2209,0,0,1,.24317-3.03418L29.293,36.707a.9948.9948,0,0,0,.90332.27344l5-1a1.00007,1.00007,0,0,0,.78418-.78418l1-5A.99919.99919,0,0,0,36.707,29.293l-7.02441-7.0249a10.30311,10.30311,0,0,1,3.03467-.24317,10.01081,10.01081,0,0,1,8.53564,13.78125.999.999,0,0,0,.22021,1.08106L61.05029,56.46436A3.24675,3.24675,0,0,1,61.05029,61.05029Z" style="fill:#292733"/></g></svg>
