<svg height="480pt" viewBox="-2 0 480 480.0111" width="480pt" xmlns="http://www.w3.org/2000/svg"><path d="m463.984375 120.890625-206.238281-115.757813c-12.171875-6.84375-27.03125-6.84375-39.199219 0l-206.242187 115.757813c-8.496094 4.746094-13.285157 14.148437-12.128907 23.808594 1.15625 9.664062 8.035157 17.667969 17.410157 20.273437 2.140624.566406 4.34375.863282 6.558593.878906 4.101563.011719 8.132813-1.066406 11.679688-3.121093l202.320312-113.519531 202.320313 113.519531c5.542968 3.136719 12.105468 3.945312 18.242187 2.242187 9.375-2.605468 16.25-10.609375 17.40625-20.273437 1.160157-9.660157-3.632812-19.0625-12.128906-23.808594zm-4.800781 24.878906c-2.167969 3.839844-7.035156 5.199219-10.878906 3.042969l-202.160157-113.601562c-4.949219-2.859376-11.050781-2.859376-16 0l-202.160156 113.601562c-3.863281 2.207031-8.789063.863281-11-3-2.207031-3.867188-.863281-8.792969 3-11l206.402344-115.761719c7.300781-4.105469 16.214843-4.105469 23.519531 0l206.238281 115.761719c1.867188 1.039062 3.238281 2.785156 3.808594 4.84375s.292969 4.261719-.769531 6.113281zm0 0"/><path d="m46.144531 179.769531c-4.417969 0-8 3.582031-8 8v284.242188c0 4.417969 3.582031 8 8 8s8-3.582031 8-8v-284.242188c0-4.417969-3.582031-8-8-8zm0 0"/><path d="m430.144531 179.769531c-4.417969 0-8 3.582031-8 8v284.242188c0 4.417969 3.582031 8 8 8s8-3.582031 8-8v-284.242188c0-4.417969-3.582031-8-8-8zm0 0"/><path d="m398.144531 168.011719h-320c-4.417969 0-8 3.582031-8 8v296c0 4.417969 3.582031 8 8 8s8-3.582031 8-8v-256h304v256c0 4.417969 3.582031 8 8 8s8-3.582031 8-8v-296c0-4.417969-3.582031-8-8-8zm-312 32v-16h304v16zm0 0"/><path d="m302.144531 120.011719c4.417969 0 8-3.582031 8-8s-3.582031-8-8-8h-128c-4.417969 0-8 3.582031-8 8v32c0 4.417969 3.582031 8 8 8h128c4.417969 0 8-3.582031 8-8s-3.582031-8-8-8h-120v-16zm0 0"/><path d="m366.144531 432.011719h-8v-88c0-4.417969-3.582031-8-8-8h-24v-88c0-4.417969-3.582031-8-8-8h-112c-4.417969 0-8 3.582031-8 8v40h-40c-4.417969 0-8 3.582031-8 8v40h-24c-4.417969 0-8 3.582031-8 8v88h-8c-4.417969 0-8 3.582031-8 8v32c0 4.417969 3.582031 8 8 8s8-3.582031 8-8v-24h24v24c0 4.417969 3.582031 8 8 8s8-3.582031 8-8v-24h16v24c0 4.417969 3.582031 8 8 8s8-3.582031 8-8v-24h24v24c0 4.417969 3.582031 8 8 8s8-3.582031 8-8v-24h16v24c0 4.417969 3.582031 8 8 8s8-3.582031 8-8v-24h24v24c0 4.417969 3.582031 8 8 8s8-3.582031 8-8v-24h16v24c0 4.417969 3.582031 8 8 8s8-3.582031 8-8v-24h24v24c0 4.417969 3.582031 8 8 8s8-3.582031 8-8v-32c0-4.417969-3.582031-8-8-8zm-80-80h16v16h-16zm-16-96v16h-16v-16zm-56 0h24v24c0 4.417969 3.582031 8 8 8h32c4.417969 0 8-3.582031 8-8v-24h24v80h-96zm-40 96h16v16h-16zm-8-48h32v32h-32zm-32 128v-80h24v24c0 4.417969 3.582031 8 8 8h32c4.417969 0 8-3.582031 8-8v-24h24v80zm112 0v-80h24v24c0 4.417969 3.582031 8 8 8h32c4.417969 0 8-3.582031 8-8v-24h24v80zm0 0"/></svg>