<svg xmlns="http://www.w3.org/2000/svg" width="287.0251203102599" height="348.4015611313218" viewBox="0 0 954 1158" version="1.1"><path d="M 442 0.634 C 376.624 6.349, 321.975 21.246, 266.500 48.474 C 218.345 72.110, 177.779 101.172, 139.476 139.476 C 62.051 216.900, 15.591 313.452, 2.325 424.500 C 0.905 436.387, 0.533 447.179, 0.533 476.500 C 0.533 505.821, 0.905 516.613, 2.325 528.500 C 11.531 605.557, 36.053 674.065, 76.778 736.500 C 95.543 765.268, 114.838 788.937, 139.959 814.004 C 178.768 852.731, 217.457 880.467, 266.333 904.603 C 318.470 930.350, 372.840 945.777, 432 951.611 C 455.730 953.951, 498.278 953.951, 522 951.610 C 620.496 941.892, 708.842 904.778, 785 841.123 C 799.281 829.187, 827.702 801.012, 839.708 786.889 C 902.248 713.322, 941.042 623.882, 951.439 529.293 C 952.297 521.479, 953 513.069, 953 510.602 C 953 508.136, 953.450 505.840, 954 505.500 C 954.630 505.111, 955 493.970, 955 475.382 C 955 455.970, 954.658 446.093, 954 446.500 C 953.389 446.878, 953 445.329, 953 442.516 C 953 439.985, 952.298 431.521, 951.440 423.707 C 937.050 292.689, 868.018 172.640, 761.546 93.472 C 694.403 43.547, 617.089 13.011, 531 2.416 C 521.254 1.216, 507.628 0.683, 482 0.498 C 462.475 0.356, 444.475 0.418, 442 0.634 M 446.500 85.616 C 400.829 90.139, 363.349 99.291, 325.604 115.136 C 271.060 138.032, 220.106 174.869, 181.707 219.163 C 128.608 280.413, 97.405 351.121, 87.342 433 C 84.841 453.349, 84.841 499.651, 87.342 520 C 96.809 597.032, 124.423 662.913, 172.428 723 C 185.560 739.437, 214.101 767.883, 231 781.376 C 277.045 818.142, 326.642 842.789, 383.109 856.966 C 392.015 859.202, 399.396 860.912, 399.511 860.766 C 399.985 860.163, 407.954 835.623, 407.737 835.436 C 407.606 835.324, 400.075 833.403, 391 831.167 C 327.103 815.420, 271.215 784.651, 223.856 739.146 C 161.900 679.615, 124.058 602.369, 113.805 514.500 C 112.125 500.108, 112.125 452.892, 113.805 438.500 C 123.800 352.849, 159.082 279.007, 218.476 219.433 C 279.328 158.397, 355.349 122.193, 440.998 113.458 C 461.463 111.371, 503.663 111.861, 523 114.411 C 611.674 126.103, 691.567 168.473, 750.383 235 C 821.886 315.878, 853.568 421.470, 838.443 528.500 C 829.360 592.779, 803.245 652.726, 761.554 705 C 749.274 720.398, 723.329 746.569, 708.179 758.840 C 658.562 799.031, 603.647 824.346, 541.052 835.885 L 526.605 838.549 524.948 844.024 C 524.037 847.036, 522.122 853.263, 520.693 857.861 L 518.094 866.223 524.797 865.517 C 537.118 864.218, 559.348 859.984, 574.502 856.051 C 668.659 831.607, 749.613 774.007, 803.661 693 C 837.618 642.105, 858.537 585.499, 866.669 522.500 C 869.245 502.540, 869.245 450.460, 866.669 430.500 C 856.965 355.326, 829.281 289.794, 782.389 231 C 768.589 213.697, 740.303 185.411, 723 171.611 C 664.690 125.106, 600.805 97.939, 525 87.414 C 514.041 85.893, 456.917 84.584, 446.500 85.616 M 445 198.600 C 395.081 204.615, 348.429 223.317, 309 253.120 C 286.429 270.181, 269.843 286.840, 252.402 309.969 C 247.231 316.827, 243 322.789, 243 323.219 C 243 323.648, 332.775 324, 442.500 324 C 601.447 324, 641.995 324.254, 641.975 325.250 C 641.961 325.938, 634.171 350.350, 624.664 379.500 L 607.379 432.500 540.724 432.757 L 474.069 433.014 461.090 472.757 C 453.952 494.616, 435.025 552.724, 419.030 601.886 C 403.036 651.049, 389.709 691.662, 389.416 692.136 C 389.122 692.611, 368.805 693, 344.266 693 L 299.650 693 305.575 697.643 C 321.581 710.186, 345.755 724.581, 364.918 732.980 C 383.862 741.284, 415.087 750.632, 430.055 752.480 L 435.500 753.152 480.403 617.326 C 505.100 542.622, 525.598 481.162, 525.955 480.748 C 526.503 480.113, 636.039 483.601, 636.548 484.270 C 636.645 484.396, 618.552 542.953, 596.341 614.396 C 574.131 685.839, 556.125 744.458, 556.327 744.660 C 557.054 745.388, 580.738 736.712, 592.315 731.478 C 645.869 707.267, 690.228 666.785, 720.497 614.500 C 753.999 556.630, 765.121 484.587, 750.831 418 C 733.302 336.318, 678.525 265.198, 604.242 227.676 C 572.021 211.400, 542.761 202.576, 507.506 198.502 C 491.516 196.654, 460.751 196.702, 445 198.600 M 201.500 426.250 C 201.260 426.938, 200.282 432.900, 199.328 439.500 C 196.884 456.401, 196.899 496.776, 199.355 513.500 C 206.726 563.691, 227.928 613.394, 257.769 650.441 C 269.135 664.550, 281.276 677.260, 282.040 675.847 C 282.440 675.106, 301.098 618.936, 323.502 551.024 C 345.906 483.112, 364.456 426.974, 364.725 426.274 C 365.119 425.249, 349.283 425, 283.576 425 C 219.165 425, 201.845 425.264, 201.500 426.250 M 0.443 476.500 C 0.443 493, 0.580 499.890, 0.748 491.812 C 0.915 483.733, 0.916 470.233, 0.748 461.812 C 0.581 453.390, 0.444 460, 0.443 476.500 M 47 1012.703 C 47 1013.402, 18.362 1151.455, 17.326 1155.750 L 16.783 1158 33.142 1157.998 L 49.500 1157.996 64.301 1086.248 C 72.442 1046.787, 79.079 1013.938, 79.051 1013.250 C 79.012 1012.304, 75.106 1012, 63 1012 C 54.200 1012, 47 1012.316, 47 1012.703 M 197.510 1013.250 C 196.743 1015.495, 168 1155.079, 168 1156.559 C 168 1157.749, 170.590 1158, 182.859 1158 L 197.717 1158 207.596 1108.500 C 213.029 1081.275, 217.705 1059.003, 217.987 1059.006 C 218.269 1059.009, 227.002 1081.284, 237.394 1108.506 L 256.288 1158 272.464 1158 L 288.639 1158 303.426 1086.952 C 311.558 1047.875, 318.442 1015.025, 318.723 1013.952 C 319.212 1012.080, 318.617 1012, 304.199 1012 L 289.166 1012 288.179 1016.750 C 287.636 1019.362, 283.253 1041.750, 278.440 1066.500 C 273.626 1091.250, 269.391 1111.845, 269.027 1112.267 C 268.664 1112.689, 259.850 1090.301, 249.442 1062.517 L 230.518 1012 214.228 1012 C 202.090 1012, 197.828 1012.319, 197.510 1013.250 M 436.916 1012.131 C 436.869 1012.334, 429.976 1045.265, 421.597 1085.311 L 406.362 1158.123 445.931 1157.756 C 490.650 1157.342, 490.609 1157.348, 507 1149.357 C 514.996 1145.458, 517.872 1143.344, 525.164 1136.002 C 532.628 1128.487, 534.521 1125.841, 538.836 1116.890 C 545.700 1102.653, 548.045 1092.804, 548.720 1075.396 C 549.151 1064.262, 548.910 1059.692, 547.574 1053.688 C 542.964 1032.967, 530.786 1020.631, 509.207 1014.821 C 502.392 1012.986, 497.767 1012.689, 469.250 1012.255 C 451.512 1011.984, 436.962 1011.929, 436.916 1012.131 M 675.525 1013.250 C 674.889 1015.180, 646 1155.803, 646 1156.970 C 646 1157.634, 651.683 1158, 661.981 1158 C 677.730 1158, 677.970 1157.967, 678.492 1155.750 C 679.484 1151.539, 708 1013.203, 708 1012.600 C 708 1012.270, 700.786 1012, 691.969 1012 C 680.030 1012, 675.832 1012.319, 675.525 1013.250 M 865.269 1013.226 C 863.968 1014.856, 783.017 1154.791, 782.313 1156.626 C 781.879 1157.758, 784.771 1158, 798.739 1158 L 815.691 1158 824.438 1142 L 833.185 1126 859.456 1126 L 885.727 1126 887.401 1138.750 C 888.321 1145.763, 889.333 1152.963, 889.648 1154.750 L 890.223 1158 906.173 1158 L 922.123 1158 921.481 1153.750 C 921.128 1151.412, 915.811 1118.675, 909.665 1081 L 898.491 1012.500 882.388 1012.226 C 870.271 1012.020, 866.033 1012.267, 865.269 1013.226 M 454.190 1084.138 C 449.121 1108.537, 444.979 1129.063, 444.986 1129.750 C 445.004 1131.324, 466.350 1131.476, 476 1129.971 C 496.308 1126.804, 511.282 1110.928, 515.636 1087.946 C 517.331 1079.004, 517.067 1066.705, 515.033 1059.823 C 512.977 1052.867, 507.962 1046.781, 501.625 1043.550 C 495.951 1040.658, 495.198 1040.542, 479.579 1040.165 L 463.408 1039.775 454.190 1084.138 M 861.230 1072.915 C 853.403 1087.649, 847 1099.996, 847 1100.352 C 847 1100.708, 854.875 1101, 864.500 1101 L 882 1101 881.983 1098.250 C 881.962 1094.837, 876.220 1046.887, 875.779 1046.446 C 875.603 1046.270, 869.056 1058.181, 861.230 1072.915" stroke="none" fill="#080404" fill-rule="evenodd"/></svg>